:SAMPLES-PER-SECOND 30
:FRAME-RANGE 1-2091
:FULLY-SPECIFIED
:DEGREES
1046
root  20.6855 38.5277 62.9052 5.42175 -68.5723 -2.41199
RightUpLeg  2.27865 -7.63185 -10.6747
RightLeg  10.5915 11.1599 -0.779597
RightFoot  -16.7226 0.625298 15.6435
RightToes  5.82063e-011 0 -3.6325e-017
Spine  6.68396 -3.59237 1.1225
Spine1  1.40291 -4.91235 5.58268
HEad  -0.028109 -64.4544 7.2411
LeftShoulder1  1.51305 -1.05877 -27.0383
LeftArm  16.0223 16.8651 -32.3996
LeftForeArm  -0.475674 -20.2027 -6.86395
LeftHand  0.368085 -1.89463 -5.71928
RightShoulder  2.03315 3.55916 22.5955
RightArm  -18.2692 4.40268 -1.7307
RightForeArm  43.1839 -7.15099 9.67096
RightHand  -0.475308 2.39901 -7.28209
LeftUpLeg  -24.4634 23.7533 1.2779
LeftLeg  18.5123 -0.757831 0.0408088
LeftFoot  1.16951 0.558644 -5.16022
LeftToes  -6.27584e-011 -2.25241e-010 2.80627e-011
1047
root  20.215 38.4114 63.9357 2.41864 -70.2592 0.0509644
RightUpLeg  3.07057 -2.44762 -12.6363
RightLeg  12.0166 7.82261 -0.897355
RightFoot  -16.8511 0.721388 17.262
RightToes  5.82063e-011 0 -3.6325e-017
Spine  7.044 -3.44279 -1.14107
Spine1  1.52671 -4.74474 4.89671
HEad  0.446669 -64.0138 6.52282
LeftShoulder1  1.45407 -0.936332 -26.6091
LeftArm  12.173 17.71 -31.7506
LeftForeArm  2.72566 -17.0272 -9.50939
LeftHand  0.396561 -1.48293 -6.58564
RightShoulder  2.29387 4.90529 20.9746
RightArm  -19.3798 6.10706 -1.78072
RightForeArm  43.9202 -7.07642 9.30904
RightHand  -0.482332 2.30383 -7.47093
LeftUpLeg  -23.154 24.026 0.0751059
LeftLeg  20.8159 0.456336 0.5247
LeftFoot  -0.226921 0.253381 -2.59074
LeftToes  -6.27584e-011 -2.25241e-010 2.80627e-011
1048
root  19.8062 38.1799 64.9739 -2.03497 -70.9973 4.10294
RightUpLeg  1.07573 5.90702 -15.174
RightLeg  19.1267 0.785699 0.093296
RightFoot  -17.1401 0.939086 20.6476
RightToes  5.82063e-011 0 -3.6325e-017
Spine  8.33132 -3.25448 -3.27969
Spine1  0.535069 -4.76908 5.20613
HEad  0.693397 -63.9044 6.46176
LeftShoulder1  1.49258 -1.00357 -26.9881
LeftArm  7.88082 17.2695 -29.9874
LeftForeArm  5.21683 -12.8608 -12.6098
LeftHand  0.357253 -1.14318 -6.2657
RightShoulder  2.22081 5.08155 19.4556
RightArm  -20.345 7.7218 -1.5437
RightForeArm  42.8307 -7.06449 9.07604
RightHand  -0.473699 2.4656 -7.20145
LeftUpLeg  -22.6769 22.8476 -1.62715
LeftLeg  24.4212 2.16841 1.41601
LeftFoot  -3.19606 0.196951 -2.49645
LeftToes  -6.27584e-011 -2.25241e-010 2.80627e-011
1049
root  19.4687 38.0341 65.8415 -7.45258 -72.3183 9.328
RightUpLeg  -3.03653 5.31519 -18.3738
RightLeg  28.4445 0.438997 0.0323455
RightFoot  -14.5652 0.673615 27.0136
RightToes  5.82063e-011 0 -3.6325e-017
Spine  8.84214 -2.83446 -5.42611
Spine1  1.00588 -4.39715 3.44791
HEad  -0.860909 -63.1899 7.86638
LeftShoulder1  1.54471 -1.19358 -26.7528
LeftArm  1.63428 16.4618 -28.8816
LeftForeArm  9.39621 -8.02175 -14.8669
LeftHand  0.350923 -0.710921 -6.64014
RightShoulder  2.30755 5.77996 18.3571
RightArm  -21.8801 8.73763 -1.39573
RightForeArm  42.1693 -6.98674 8.49708
RightHand  -0.486591 2.65096 -7.23434
LeftUpLeg  -21.7245 23.9234 -3.67628
LeftLeg  26.116 2.53705 1.7085
LeftFoot  -5.52566 0.141254 -2.12728
LeftToes  -6.27584e-011 -2.25241e-010 2.80627e-011
1050
root  19.1267 38.0496 66.7077 -10.7776 -74.3689 12.5511
RightUpLeg  -9.16005 4.91187 -19.6856
RightLeg  38.9088 -2.63377 -2.54224
RightFoot  -7.34427 -1.02525 27.4285
RightToes  5.82063e-011 0 -3.6325e-017
Spine  9.37131 -2.33073 -6.03247
Spine1  0.994771 -3.72467 1.91294
HEad  -1.48644 -62.7182 8.18734
LeftShoulder1  1.58733 -1.35549 -26.5282
LeftArm  -0.175508 16.4489 -27.5779
LeftForeArm  10.3916 -6.25418 -15.4445
LeftHand  0.351618 -0.404303 -7.04449
RightShoulder  2.50953 6.89215 17.5735
RightArm  -22.98 9.80553 -1.39562
RightForeArm  41.1637 -6.09645 8.3359
RightHand  -0.466977 2.6624 -6.94266
LeftUpLeg  -20.3897 25.1782 -4.78503
LeftLeg  26.4849 3.46602 2.23971
LeftFoot  -7.36064 0.113222 -1.98607
LeftToes  -6.27584e-011 -2.25241e-010 2.80627e-011
1051
root  18.7385 38.2246 67.5593 -11.3887 -75.2339 12.7826
RightUpLeg  -14.8751 3.73915 -18.7855
RightLeg  48.1434 -6.48563 -8.01757
RightFoot  2.31012 -1.67579 14.0679
RightToes  5.82063e-011 0 -3.6325e-017
Spine  9.88045 -2.51242 -6.45593
Spine1  1.00424 -3.96665 2.19285
HEad  -1.74448 -62.1494 7.90616
LeftShoulder1  1.5725 -1.33904 -26.3258
LeftArm  1.34366 16.8285 -26.262
LeftForeArm  9.6753 -6.56083 -15.488
LeftHand  0.35493 -0.321658 -7.22476
RightShoulder  2.78568 8.35268 16.8641
RightArm  -24.0702 11.1354 -1.29479
RightForeArm  40.9341 -5.70929 8.12596
RightHand  -0.453697 2.89882 -6.5754
LeftUpLeg  -18.135 25.6744 -5.14962
LeftLeg  25.3216 3.93673 2.38977
LeftFoot  -8.25693 0.0892339 -1.4727
LeftToes  -6.27584e-011 -2.25241e-010 2.80627e-011
1052
root  18.3359 38.3507 68.2806 -9.84778 -75.192 10.981
RightUpLeg  -18.6127 1.55149 -17.0091
RightLeg  53.3202 -6.34786 -9.43821
RightFoot  1.79278 -1.47168 12.8411
RightToes  5.82063e-011 0 -3.6325e-017
Spine  10.1151 -2.77609 -6.63885
Spine1  1.23938 -4.28612 2.28649
HEad  -1.43193 -62.2318 7.03158
LeftShoulder1  1.5803 -1.39481 -26.1079
LeftArm  2.34013 16.4364 -25.263
LeftForeArm  9.48922 -6.94253 -15.414
LeftHand  0.348174 -0.269255 -7.12982
RightShoulder  2.86369 8.78384 16.655
RightArm  -24.7699 12.2314 -1.35357
RightForeArm  40.1916 -4.71825 8.14093
RightHand  -0.410454 2.81719 -6.02435
LeftUpLeg  -16.2852 25.3042 -5.02516
LeftLeg  24.4273 4.38213 2.2923
LeftFoot  -9.17366 0.0749167 -1.04824
LeftToes  -6.27584e-011 -2.25241e-010 2.80627e-011
1053
root  17.9173 38.4946 68.9297 -7.4552 -75.0685 8.71887
RightUpLeg  -21.8294 -1.10899 -14.3549
RightLeg  54.7683 -4.71932 -7.54188
RightFoot  0.54887 -1.42547 13.6649
RightToes  5.82063e-011 0 -3.6325e-017
Spine  9.88661 -2.884 -6.58385
Spine1  1.49585 -4.34481 2.39598
HEad  -1.50392 -62.7971 6.87038
LeftShoulder1  1.57852 -1.41583 -25.9274
LeftArm  2.7162 15.6125 -24.5094
LeftForeArm  8.8465 -7.77587 -15.077
LeftHand  0.339438 -0.353485 -6.86633
RightShoulder  2.89578 8.94664 16.6028
RightArm  -25.1248 12.7139 -1.37779
RightForeArm  38.8405 -3.76992 8.30458
RightHand  -0.370877 2.82429 -5.4609
LeftUpLeg  -14.502 23.5008 -4.31027
LeftLeg  23.1993 6.11803 1.69965
LeftFoot  -9.85829 0.071153 -0.924556
LeftToes  -6.27584e-011 -2.25241e-010 2.80627e-011
